<?xml version="1.0" encoding="UTF-8" standalone="no"?>
<!DOCTYPE svg PUBLIC "-//W3C//DTD SVG 1.1//EN"
 "http://www.w3.org/Graphics/SVG/1.1/DTD/svg11.dtd">
<!-- Generated by graphviz version 10.0.1 (20240210.2158)
 -->
<!-- Title: dependency&#45;cruiser output Pages: 1 -->
<svg width="180pt" height="110pt"
 viewBox="0.00 0.00 180.00 110.00" xmlns="http://www.w3.org/2000/svg" xmlns:xlink="http://www.w3.org/1999/xlink">
<g id="graph0" class="graph" transform="scale(1 1) rotate(0) translate(4 106)">
<title>dependency&#45;cruiser output</title>
<polygon fill="white" stroke="none" points="-4,4 -4,-106 176,-106 176,4 -4,4"/>
<g id="clust1" class="cluster">
<title>cluster_Client</title>
<path fill="#ffffff" stroke="black" stroke-width="2" d="M20,-8C20,-8 152,-8 152,-8 158,-8 164,-14 164,-20 164,-20 164,-82 164,-82 164,-88 158,-94 152,-94 152,-94 20,-94 20,-94 14,-94 8,-88 8,-82 8,-82 8,-20 8,-20 8,-14 14,-8 20,-8"/>
<text text-anchor="middle" x="86" y="-81.45" font-family="Helvetica,sans-Serif" font-weight="bold" font-size="9.00">Client</text>
</g>
<g id="clust2" class="cluster">
<title>cluster_Client/Components</title>
<path fill="#ffffff" stroke="black" stroke-width="2" d="M98,-16C98,-16 144,-16 144,-16 150,-16 156,-22 156,-28 156,-28 156,-56 156,-56 156,-62 150,-68 144,-68 144,-68 98,-68 98,-68 92,-68 86,-62 86,-56 86,-56 86,-28 86,-28 86,-22 92,-16 98,-16"/>
<text text-anchor="middle" x="121" y="-55.45" font-family="Helvetica,sans-Serif" font-weight="bold" font-size="9.00">Components</text>
</g>
<!-- Client/Components/App.js -->
<g id="node1" class="node">
<title>Client/Components/App.js</title>
<g id="a_node1"><a xlink:href="Client/Components/App.js" xlink:title="App.js">
<path fill="#ffffcc" stroke="black" d="M142.08,-41.88C142.08,-41.88 99.92,-41.88 99.92,-41.88 96.96,-41.88 94,-38.92 94,-35.96 94,-35.96 94,-30.04 94,-30.04 94,-27.08 96.96,-24.12 99.92,-24.12 99.92,-24.12 142.08,-24.12 142.08,-24.12 145.04,-24.12 148,-27.08 148,-30.04 148,-30.04 148,-35.96 148,-35.96 148,-38.92 145.04,-41.88 142.08,-41.88"/>
<text text-anchor="start" x="108.25" y="-29.32" font-family="Helvetica,sans-Serif" font-size="9.00">App.js</text>
</a>
</g>
</g>
<!-- Client/index.js -->
<g id="node2" class="node">
<title>Client/index.js</title>
<g id="a_node2"><a xlink:href="Client/index.js" xlink:title="index.js">
<path fill="#ffffcc" stroke="black" d="M64.08,-41.88C64.08,-41.88 21.92,-41.88 21.92,-41.88 18.96,-41.88 16,-38.92 16,-35.96 16,-35.96 16,-30.04 16,-30.04 16,-27.08 18.96,-24.12 21.92,-24.12 21.92,-24.12 64.08,-24.12 64.08,-24.12 67.04,-24.12 70,-27.08 70,-30.04 70,-30.04 70,-35.96 70,-35.96 70,-38.92 67.04,-41.88 64.08,-41.88"/>
<text text-anchor="start" x="27.25" y="-29.32" font-family="Helvetica,sans-Serif" font-size="9.00">index.js</text>
</a>
</g>
</g>
<!-- Client/index.js&#45;&gt;Client/Components/App.js -->
<g id="edge1" class="edge">
<title>Client/index.js&#45;&gt;Client/Components/App.js</title>
<path fill="none" stroke="#000000" stroke-width="2" stroke-opacity="0.200000" d="M70.15,-33C74.88,-33 79.87,-33 84.8,-33"/>
<polygon fill="#000000" fill-opacity="0.200000" stroke="#000000" stroke-width="2" stroke-opacity="0.200000" points="84.51,-35.1 90.51,-33 84.51,-30.9 84.51,-35.1"/>
</g>
</g>
</svg>
